<?xml version="1.0" encoding="UTF-8" standalone="no"?>
<!DOCTYPE svg PUBLIC "-//W3C//DTD SVG 1.1//EN" "http://www.w3.org/Graphics/SVG/1.1/DTD/svg11.dtd">
<svg width="100%" height="100%" viewBox="0 0 451 189" version="1.1" xmlns="http://www.w3.org/2000/svg" xmlns:xlink="http://www.w3.org/1999/xlink" xml:space="preserve" xmlns:serif="http://www.serif.com/" style="fill-rule:evenodd;clip-rule:evenodd;stroke-linejoin:round;stroke-miterlimit:2;">
    <g transform="matrix(1,0,0,1,-74.8405,-55.7049)">
        <g id="Emily-brand-name" serif:id="Emily brand name" transform="matrix(1,0,0,1,55.6116,7.96119)">
            <g id="Emily-white-text" serif:id="Emily white text" transform="matrix(0.947641,0,0,0.947641,-31.557,6.51264)">
                <text x="38.808px" y="204.119px" style="font-family:'IBMPlexSansArabic-Bold', 'IBM Plex Sans Arabic', sans-serif;font-weight:700;font-size:192px;fill:white;">E</text>
                <text x="149.592px" y="204.119px" style="font-family:'IBMPlexSansArabic-Bold', 'IBM Plex Sans Arabic', sans-serif;font-weight:700;font-size:192px;fill:white;">m<tspan x="317.4px " y="204.119px ">i</tspan></text>
                <text x="368.472px" y="204.119px" style="font-family:'IBMPlexSansArabic-Bold', 'IBM Plex Sans Arabic', sans-serif;font-weight:700;font-size:192px;fill:white;">l</text>
                <text x="427.416px" y="204.119px" style="font-family:'IBMPlexSansArabic-Bold', 'IBM Plex Sans Arabic', sans-serif;font-weight:700;font-size:192px;fill:white;">y</text>
            </g>
            <g id="Dot-for-i" serif:id="Dot for i" transform="matrix(1,0,0,1,-0.00843834,-2.06107)">
                <g transform="matrix(1,0,0,1,-157.284,13.5013)">
                    <circle cx="452.501" cy="62.564" r="13.13" style="fill:white;"/>
                </g>
                <g transform="matrix(0.699689,0,0,0.699689,-96.1283,-28.6725)">
                    <path d="M562.944,112.336C560.53,112.102 558.098,112.102 555.684,112.336L554.488,118.157C552.175,118.511 549.907,119.119 547.726,119.969L543.78,115.526C541.572,116.53 539.466,117.746 537.493,119.156L539.368,124.795C537.541,126.258 535.881,127.918 534.417,129.745L528.778,127.87C527.368,129.844 526.152,131.949 525.149,134.157L529.592,138.103C528.741,140.284 528.134,142.552 527.78,144.866L521.959,146.062C521.724,148.476 521.724,150.907 521.959,153.321L527.78,154.517C528.134,156.831 528.741,159.099 529.592,161.28L525.149,165.225C526.152,167.433 527.368,169.539 528.778,171.512L534.417,169.637C535.881,171.464 537.541,173.125 539.368,174.588L537.493,180.227C539.466,181.637 541.572,182.853 543.78,183.857L547.726,179.414C549.907,180.264 552.175,180.872 554.488,181.226L555.684,187.046C558.098,187.281 560.53,187.281 562.944,187.046L564.139,181.226C566.453,180.872 568.721,180.264 570.902,179.414L574.848,183.857C577.056,182.853 579.161,181.637 581.135,180.227L579.26,174.588C581.087,173.125 582.747,171.464 584.211,169.637L589.849,171.512C591.26,169.539 592.475,167.433 593.479,165.225L589.036,161.28C589.886,159.099 590.494,156.831 590.848,154.517L596.669,153.321C596.904,150.907 596.904,148.476 596.669,146.062L590.848,144.866C590.494,142.552 589.886,140.284 589.036,138.103L593.479,134.157C592.475,131.949 591.26,129.844 589.849,127.87L584.211,129.745C582.747,127.918 581.087,126.258 579.26,124.795L581.135,119.156C579.161,117.746 577.056,116.53 574.848,115.526L570.902,119.969C568.721,119.119 566.453,118.511 564.139,118.157L562.944,112.336ZM559.314,142.185C563.457,142.185 566.82,145.549 566.82,149.691C566.82,153.834 563.457,157.198 559.314,157.198C555.171,157.198 551.808,153.834 551.808,149.691C551.808,145.549 555.171,142.185 559.314,142.185Z" style="fill:rgb(212,99,224);"/>
                </g>
            </g>
        </g>
    </g>
</svg>
